<?xml version="1.0" standalone="no"?>
<!DOCTYPE svg PUBLIC "-//W3C//DTD SVG 20010904//EN"
 "http://www.w3.org/TR/2001/REC-SVG-20010904/DTD/svg10.dtd">
<svg version="1.0" xmlns="http://www.w3.org/2000/svg"
 width="233.000000pt" height="233.000000pt" viewBox="0 0 233.000000 233.000000"
 preserveAspectRatio="xMidYMid meet">
<metadata>
Created by potrace 1.14, written by Peter Selinger 2001-2017
</metadata>
<g transform="translate(0.000000,233.000000) scale(0.100000,-0.100000)"
fill="#000000" stroke="none">
<path d="M0 1165 l0 -1165 1165 0 1165 0 0 1165 0 1165 -1165 0 -1165 0 0
-1165z m1833 667 c85 -30 140 -65 201 -128 298 -306 145 -864 -310 -1127 -127
-73 -253 -107 -402 -107 -147 0 -261 37 -359 116 l-42 34 -238 -10 c-131 -5
-278 -12 -327 -15 -49 -3 -87 -3 -85 -1 2 3 135 23 294 46 159 22 291 42 292
44 2 1 -11 28 -28 59 -36 67 1 62 -324 46 -126 -6 -246 -9 -265 -7 -19 1 90
21 243 43 153 22 282 42 287 45 4 3 3 31 -2 63 l-10 58 -42 -5 c-22 -3 -117
-8 -211 -11 -93 -3 -215 -8 -270 -11 -55 -4 -98 -4 -95 -1 3 3 143 25 312 48
l306 43 6 29 c3 16 6 43 6 59 0 29 -1 30 -37 24 -21 -3 -139 -8 -263 -11 -124
-3 -243 -8 -265 -10 -37 -4 -38 -4 -10 5 17 5 149 25 295 45 146 19 274 37
285 40 13 3 26 21 38 55 10 29 16 54 13 57 -3 3 -130 0 -282 -6 -152 -7 -278
-10 -282 -7 -3 3 0 6 6 6 19 0 586 81 602 85 8 3 30 28 48 56 l34 52 -219 -7
c-120 -4 -245 -8 -278 -11 -115 -8 1 12 285 51 l275 37 43 36 c118 98 217 155
338 192 129 40 324 41 437 1z"/>
<path d="M1511 1759 c-227 -44 -454 -211 -560 -409 -129 -242 -119 -486 26
-641 90 -97 196 -140 344 -141 287 -1 565 184 700 465 134 279 65 562 -163
678 -104 53 -233 71 -347 48z m204 -50 c38 -10 44 -15 50 -46 4 -22 2 -40 -7
-50 -16 -20 -185 -103 -210 -103 -22 0 -165 87 -172 105 -8 21 42 84 72 91 15
3 32 7 37 9 25 8 190 4 230 -6z m-482 -196 c9 -2 17 -10 17 -16 -1 -33 -50
-201 -64 -216 -19 -21 -188 -111 -208 -111 -16 0 -38 40 -38 68 0 31 71 156
127 225 l56 68 46 -6 c25 -4 54 -9 64 -12z m774 -40 c19 -44 27 -80 30 -148 4
-90 4 -90 -27 -122 -17 -18 -33 -33 -36 -33 -13 0 -156 103 -161 117 -7 19 16
176 31 206 11 22 45 33 109 36 25 1 31 -5 54 -56z m-391 -145 c40 -34 76 -68
79 -76 3 -8 -23 -67 -57 -131 l-63 -116 -132 -3 c-152 -3 -136 -17 -153 130
-7 61 -8 104 -2 114 14 25 203 143 231 143 14 1 50 -22 97 -61z m-486 -378
c41 -11 80 -26 86 -32 7 -7 17 -56 24 -108 13 -108 10 -114 -67 -139 -39 -13
-42 -12 -87 18 -51 36 -123 120 -132 156 -6 24 23 90 52 119 9 9 24 14 33 12
9 -3 50 -14 91 -26z m730 4 c6 -14 10 -42 10 -63 0 -33 -7 -45 -49 -84 -54
-50 -150 -116 -201 -137 -27 -11 -36 -11 -66 3 -19 10 -37 24 -40 32 -6 15 86
194 109 213 10 9 178 55 220 61 4 1 12 -11 17 -25z"/>
</g>
</svg>
